<svg width="194" height="48" viewBox="0 0 194 48" fill="none" xmlns="http://www.w3.org/2000/svg">
<path d="M25.711 33.0344V22.9228L33.271 30.0294C40.7901 20.1816 32.3286 6.45576 20.2612 8.18164C17.1061 8.60804 14.1353 10.1106 11.9431 12.405C3.09234 21.6233 10.4885 37.4811 24.871 35.7552C25.3422 35.6943 25.8339 35.674 26.3051 35.7756H26.3256C27.0222 35.8974 27.6368 36.2629 28.1286 36.7705L32.4105 41.075C7.907 52.1207 -9.77407 23.5522 5.98113 6.90246C25.5471 -12.4072 56.238 12.608 39.0691 35.3492L41.753 37.9684V47.9989L25.711 33.0344Z" fill="#183952"/>
<path d="M48.3926 42.0507H54.1497V28.5887C54.1497 27.9796 54.1907 27.3705 54.3136 26.7816C55.9321 18.4974 67.9175 18.2537 70.0073 26.3755C70.2122 27.1268 70.2737 27.9187 70.2737 28.7106V42.0304H75.8668V28.0202C75.8668 26.0101 75.4571 24.0202 74.5966 22.1928C69.8844 12.4466 55.256 12.0811 50.0111 21.6446C48.9048 23.6547 48.3926 25.9288 48.3926 28.203V42.0507Z" fill="#183952"/>
<path d="M64.9058 28.3654H59.374V42.0507H64.9058V28.3654Z" fill="#183952"/>
<path d="M105.922 42.1319L105.984 36.4263L92.4003 36.2842C91.7856 36.2842 91.171 36.2232 90.5769 36.1217C82.2383 34.4364 82.1358 22.5583 90.3515 20.5481C91.1095 20.3654 91.9086 20.3044 92.7076 20.3044L106.148 20.4466L106.209 14.9034L92.052 14.7613C90.0237 14.741 87.9954 15.1065 86.172 15.9593C76.2968 20.5278 75.7641 35.005 85.3524 40.3248C87.3603 41.4415 89.6549 41.9694 91.97 42.01L105.922 42.1319Z" fill="#183952"/>
<path d="M92.2912 25.6321L92.2314 31.1138L106.039 31.2616L106.099 25.7799L92.2912 25.6321Z" fill="#183952"/>
<path d="M163.842 42.1319L163.903 36.4263L150.32 36.2842C149.705 36.2842 149.09 36.2232 148.496 36.1217C140.158 34.4364 140.055 22.5583 148.271 20.5481C149.029 20.3654 149.828 20.3044 150.627 20.3044L164.067 20.4466L164.129 14.9034L149.971 14.7613C147.943 14.741 145.915 15.1065 144.091 15.9593C134.216 20.5278 133.684 35.005 143.272 40.3248C145.28 41.4415 147.574 41.9694 149.89 42.01L163.842 42.1319Z" fill="#183952"/>
<path d="M150.218 25.6223L150.159 31.1039L163.966 31.2517L164.026 25.7701L150.218 25.6223Z" fill="#183952"/>
<path d="M108.791 15.1674H136.368V20.406H125.325V42.0507H119.65V20.4872H108.791V15.1674Z" fill="#183952"/>
<path d="M167.345 15.1674H185.887C186.522 15.1674 187.157 15.2081 187.772 15.3502C195.639 17.0558 196.11 28.2436 188.858 30.3553C191.357 32.873 192.709 36.67 192.668 42.0507H187.055C187.075 35.939 184.883 32.5279 180.724 31.5126C179.925 31.3096 179.105 31.2487 178.286 31.2487H167.345V25.9898H185.19C188.571 25.9898 188.571 20.3654 185.19 20.3654H167.345V15.1674Z" fill="#183952"/>
</svg>
