<svg width="18" height="18" viewBox="0 0 18 18" fill="none" xmlns="http://www.w3.org/2000/svg">
<path fill-rule="evenodd" clip-rule="evenodd" d="M4.413 1.48478H1.54344V4.35435H4.413V1.48478ZM1.54344 0.528259C1.28975 0.528259 1.04646 0.629035 0.867073 0.808418C0.68769 0.987801 0.586914 1.2311 0.586914 1.48478V4.35435C0.586914 4.60803 0.68769 4.85133 0.867073 5.03071C1.04646 5.21009 1.28975 5.31087 1.54344 5.31087H4.413C4.66669 5.31087 4.90998 5.21009 5.08936 5.03071C5.26875 4.85133 5.36952 4.60803 5.36952 4.35435V1.48478C5.36952 1.2311 5.26875 0.987801 5.08936 0.808418C4.90998 0.629035 4.66669 0.528259 4.413 0.528259H1.54344ZM4.413 7.70217H1.54344V10.5717H4.413V7.70217ZM1.54344 6.74565C1.28975 6.74565 1.04646 6.84643 0.867073 7.02581C0.68769 7.20519 0.586914 7.44849 0.586914 7.70217V10.5717C0.586914 10.8254 0.68769 11.0687 0.867073 11.2481C1.04646 11.4275 1.28975 11.5283 1.54344 11.5283H4.413C4.66669 11.5283 4.90998 11.4275 5.08936 11.2481C5.26875 11.0687 5.36952 10.8254 5.36952 10.5717V7.70217C5.36952 7.44849 5.26875 7.20519 5.08936 7.02581C4.90998 6.84643 4.66669 6.74565 4.413 6.74565H1.54344ZM4.413 13.9196H1.54344V16.7891H4.413V13.9196ZM1.54344 12.963C1.28975 12.963 1.04646 13.0638 0.867073 13.2432C0.68769 13.4226 0.586914 13.6659 0.586914 13.9196V16.7891C0.586914 17.0428 0.68769 17.2861 0.867073 17.4655C1.04646 17.6449 1.28975 17.7456 1.54344 17.7456H4.413C4.66669 17.7456 4.90998 17.6449 5.08936 17.4655C5.26875 17.2861 5.36952 17.0428 5.36952 16.7891V13.9196C5.36952 13.6659 5.26875 13.4226 5.08936 13.2432C4.90998 13.0638 4.66669 12.963 4.413 12.963H1.54344ZM10.6304 1.48478H7.76083V4.35435H10.6304V1.48478ZM7.76083 0.528259C7.50714 0.528259 7.26385 0.629035 7.08446 0.808418C6.90508 0.987801 6.80431 1.2311 6.80431 1.48478V4.35435C6.80431 4.60803 6.90508 4.85133 7.08446 5.03071C7.26385 5.21009 7.50714 5.31087 7.76083 5.31087H10.6304C10.8841 5.31087 11.1274 5.21009 11.3068 5.03071C11.4861 4.85133 11.5869 4.60803 11.5869 4.35435V1.48478C11.5869 1.2311 11.4861 0.987801 11.3068 0.808418C11.1274 0.629035 10.8841 0.528259 10.6304 0.528259H7.76083ZM10.6304 7.70217H7.76083V10.5717H10.6304V7.70217ZM7.76083 6.74565C7.50714 6.74565 7.26385 6.84643 7.08446 7.02581C6.90508 7.20519 6.80431 7.44849 6.80431 7.70217V10.5717C6.80431 10.8254 6.90508 11.0687 7.08446 11.2481C7.26385 11.4275 7.50714 11.5283 7.76083 11.5283H10.6304C10.8841 11.5283 11.1274 11.4275 11.3068 11.2481C11.4861 11.0687 11.5869 10.8254 11.5869 10.5717V7.70217C11.5869 7.44849 11.4861 7.20519 11.3068 7.02581C11.1274 6.84643 10.8841 6.74565 10.6304 6.74565H7.76083ZM10.6304 13.9196H7.76083V16.7891H10.6304V13.9196ZM7.76083 12.963C7.50714 12.963 7.26385 13.0638 7.08446 13.2432C6.90508 13.4226 6.80431 13.6659 6.80431 13.9196V16.7891C6.80431 17.0428 6.90508 17.2861 7.08446 17.4655C7.26385 17.6449 7.50714 17.7456 7.76083 17.7456H10.6304C10.8841 17.7456 11.1274 17.6449 11.3068 17.4655C11.4861 17.2861 11.5869 17.0428 11.5869 16.7891V13.9196C11.5869 13.6659 11.4861 13.4226 11.3068 13.2432C11.1274 13.0638 10.8841 12.963 10.6304 12.963H7.76083ZM16.8478 1.48478H13.9782V4.35435H16.8478V1.48478ZM13.9782 0.528259C13.7245 0.528259 13.4812 0.629035 13.3019 0.808418C13.1225 0.987801 13.0217 1.2311 13.0217 1.48478V4.35435C13.0217 4.60803 13.1225 4.85133 13.3019 5.03071C13.4812 5.21009 13.7245 5.31087 13.9782 5.31087H16.8478C17.1015 5.31087 17.3448 5.21009 17.5241 5.03071C17.7035 4.85133 17.8043 4.60803 17.8043 4.35435V1.48478C17.8043 1.2311 17.7035 0.987801 17.5241 0.808418C17.3448 0.629035 17.1015 0.528259 16.8478 0.528259H13.9782ZM16.8478 7.70217H13.9782V10.5717H16.8478V7.70217ZM13.9782 6.74565C13.7245 6.74565 13.4812 6.84643 13.3019 7.02581C13.1225 7.20519 13.0217 7.44849 13.0217 7.70217V10.5717C13.0217 10.8254 13.1225 11.0687 13.3019 11.2481C13.4812 11.4275 13.7245 11.5283 13.9782 11.5283H16.8478C17.1015 11.5283 17.3448 11.4275 17.5241 11.2481C17.7035 11.0687 17.8043 10.8254 17.8043 10.5717V7.70217C17.8043 7.44849 17.7035 7.20519 17.5241 7.02581C17.3448 6.84643 17.1015 6.74565 16.8478 6.74565H13.9782ZM16.8478 13.9196H13.9782V16.7891H16.8478V13.9196ZM13.9782 12.963C13.7245 12.963 13.4812 13.0638 13.3019 13.2432C13.1225 13.4226 13.0217 13.6659 13.0217 13.9196V16.7891C13.0217 17.0428 13.1225 17.2861 13.3019 17.4655C13.4812 17.6449 13.7245 17.7456 13.9782 17.7456H16.8478C17.1015 17.7456 17.3448 17.6449 17.5241 17.4655C17.7035 17.2861 17.8043 17.0428 17.8043 16.7891V13.9196C17.8043 13.6659 17.7035 13.4226 17.5241 13.2432C17.3448 13.0638 17.1015 12.963 16.8478 12.963H13.9782Z" fill="#EFEFEF"/>
</svg>
