<svg width="12" height="12" viewBox="0 0 12 12" fill="none" xmlns="http://www.w3.org/2000/svg">
<path d="M1.04962 1.05C1.23715 0.862533 1.49146 0.757217 1.75662 0.757217C2.02179 0.757217 2.27609 0.862533 2.46362 1.05L5.99962 4.586L9.53562 1.05C9.72423 0.867846 9.97683 0.767051 10.239 0.76933C10.5012 0.771608 10.752 0.876777 10.9374 1.06219C11.1228 1.24759 11.228 1.49841 11.2303 1.7606C11.2326 2.0228 11.1318 2.2754 10.9496 2.464L7.41362 6L10.9496 9.536C11.1318 9.72461 11.2326 9.97721 11.2303 10.2394C11.228 10.5016 11.1228 10.7524 10.9374 10.9378C10.752 11.1232 10.5012 11.2284 10.239 11.2307C9.97683 11.233 9.72423 11.1322 9.53562 10.95L5.99962 7.414L2.46362 10.95C2.27502 11.1322 2.02242 11.233 1.76022 11.2307C1.49802 11.2284 1.24721 11.1232 1.0618 10.9378C0.876396 10.7524 0.771227 10.5016 0.768948 10.2394C0.76667 9.97721 0.867464 9.72461 1.04962 9.536L4.58562 6L1.04962 2.464C0.862151 2.27648 0.756836 2.02217 0.756836 1.757C0.756836 1.49184 0.862151 1.23753 1.04962 1.05Z" fill="white"/>
</svg>
