<svg width="17" height="20" viewBox="0 0 17 20" fill="none" xmlns="http://www.w3.org/2000/svg">
<path d="M16.4725 0.10625C16.5578 0.163297 16.6277 0.240462 16.6761 0.330933C16.7245 0.421403 16.7499 0.522398 16.75 0.625V10C16.75 10.1248 16.7126 10.2468 16.6426 10.3501C16.5727 10.4535 16.4734 10.5336 16.3575 10.58L16.125 10L16.3575 10.58L16.3537 10.5813L16.3463 10.585L16.3175 10.5963C16.1532 10.6616 15.9877 10.7241 15.8212 10.7837C15.4913 10.9025 15.0325 11.0625 14.5125 11.2213C13.4925 11.5363 12.1637 11.875 11.125 11.875C10.0662 11.875 9.19 11.525 8.4275 11.2188L8.3925 11.2063C7.6 10.8875 6.925 10.625 6.125 10.625C5.25 10.625 4.0775 10.9125 3.07875 11.2213C2.63157 11.3606 2.18847 11.5128 1.75 11.6775V19.375C1.75 19.5408 1.68415 19.6997 1.56694 19.8169C1.44973 19.9342 1.29076 20 1.125 20C0.95924 20 0.800269 19.9342 0.683058 19.8169C0.565848 19.6997 0.5 19.5408 0.5 19.375V0.625C0.5 0.45924 0.565848 0.300269 0.683058 0.183058C0.800269 0.065848 0.95924 0 1.125 0C1.29076 0 1.44973 0.065848 1.56694 0.183058C1.68415 0.300269 1.75 0.45924 1.75 0.625V0.9775C2.0325 0.87875 2.37 0.765 2.7375 0.6525C3.7575 0.34 5.0875 0 6.125 0C7.175 0 8.03 0.34625 8.77625 0.64875L8.83 0.67125C9.6075 0.985 10.285 1.25 11.125 1.25C12 1.25 13.1725 0.9625 14.1713 0.65375C14.7404 0.476015 15.3028 0.27755 15.8575 0.05875L15.8813 0.05L15.8862 0.0475H15.8875L16.4725 0.10625ZM15.5 1.52625C15.225 1.62375 14.9 1.735 14.5425 1.845C13.53 2.16 12.2025 2.49875 11.125 2.49875C10.0175 2.49875 9.135 2.14125 8.37125 1.83125L8.36125 1.8275C7.5775 1.5125 6.92375 1.25 6.125 1.25C5.28875 1.25 4.1175 1.53625 3.10625 1.8475C2.65014 1.98823 2.19789 2.1412 1.75 2.30625V10.3475C2.025 10.25 2.35 10.1388 2.7075 10.0287C3.72 9.7125 5.0475 9.375 6.125 9.375C7.18375 9.375 8.06 9.725 8.8225 10.0312L8.8575 10.0437C9.65 10.3625 10.325 10.625 11.125 10.625C11.96 10.625 13.1325 10.3388 14.1438 10.0275C14.5999 9.88676 15.0521 9.73379 15.5 9.56875V1.5275V1.52625Z" fill="#EFEFEF"/>
</svg>
