<svg width="22" height="18" viewBox="0 0 22 18" fill="none" xmlns="http://www.w3.org/2000/svg">
<path d="M0 3.5C0 3.5 0 0.75 2.75 0.75H19.25C19.25 0.75 22 0.75 22 3.5V11.75C22 11.75 22 14.5 19.25 14.5H13.75C13.75 15.4171 13.8641 16.1046 14.0938 16.5625H15.125C15.3073 16.5625 15.4822 16.6349 15.6111 16.7639C15.7401 16.8928 15.8125 17.0677 15.8125 17.25C15.8125 17.4323 15.7401 17.6072 15.6111 17.7361C15.4822 17.8651 15.3073 17.9375 15.125 17.9375H6.875C6.69266 17.9375 6.5178 17.8651 6.38886 17.7361C6.25993 17.6072 6.1875 17.4323 6.1875 17.25C6.1875 17.0677 6.25993 16.8928 6.38886 16.7639C6.5178 16.6349 6.69266 16.5625 6.875 16.5625H7.90625C8.13587 16.1046 8.25 15.4171 8.25 14.5H2.75C2.75 14.5 0 14.5 0 11.75V3.5ZM1.92225 2.32437C1.77121 2.42953 1.65071 2.5728 1.573 2.73962C1.45579 2.98179 1.38846 3.24505 1.375 3.51375V11.75C1.375 12.1969 1.48225 12.4403 1.57437 12.5778C1.67062 12.7221 1.80813 12.8363 1.98962 12.927C2.22136 13.0393 2.47249 13.106 2.72938 13.1236L2.76375 13.125H19.25C19.6969 13.125 19.9403 13.0177 20.0778 12.9256C20.2288 12.8205 20.3493 12.6772 20.427 12.5104C20.5393 12.2786 20.606 12.0275 20.6236 11.7706L20.625 11.7362V3.5C20.625 3.05312 20.5177 2.80975 20.4256 2.67225C20.3205 2.52117 20.1772 2.40066 20.0104 2.323C19.7682 2.20579 19.505 2.13846 19.2362 2.125H2.75C2.30312 2.125 2.05975 2.23225 1.92225 2.32437Z" fill="#EFEFEF"/>
</svg>
