<svg width="20" height="20" viewBox="0 0 20 20" fill="none" xmlns="http://www.w3.org/2000/svg">
<path d="M14.1666 0.833344H2.49992C2.05789 0.833344 1.63397 1.00894 1.32141 1.3215C1.00885 1.63406 0.833252 2.05798 0.833252 2.50001V10H2.49992V2.50001H14.1666V0.833344Z" fill="#EFEFEF"/>
<path d="M17.5001 4.16666H5.83341C5.39139 4.16666 4.96746 4.34225 4.6549 4.65481C4.34234 4.96737 4.16675 5.3913 4.16675 5.83332V14.1667C4.16675 14.6087 4.34234 15.0326 4.6549 15.3452C4.96746 15.6577 5.39139 15.8333 5.83341 15.8333H10.4417V17.1083H9.16675V18.3333H14.1667V17.1H12.9001V15.8333H17.5001C17.9421 15.8333 18.366 15.6577 18.6786 15.3452C18.9912 15.0326 19.1667 14.6087 19.1667 14.1667V5.83332C19.1667 5.3913 18.9912 4.96737 18.6786 4.65481C18.366 4.34225 17.9421 4.16666 17.5001 4.16666ZM17.5001 14.1667H5.83341V5.83332H17.5001V14.1667Z" fill="#EFEFEF"/>
</svg>
