<svg width="141" height="35" viewBox="0 0 141 35" fill="none" xmlns="http://www.w3.org/2000/svg">
<path d="M18.6866 24.0875V16.7144L24.1813 21.8963C29.6461 14.7156 23.4963 4.70719 14.7257 5.96565C12.4325 6.27656 10.2733 7.37216 8.68004 9.04518C2.24726 15.7668 7.6228 27.3299 18.0761 26.0714C18.4186 26.027 18.7759 26.0122 19.1184 26.0862H19.1333C19.6396 26.175 20.0863 26.4415 20.4437 26.8117L23.5558 29.9504C5.74657 38.0046 -7.1041 17.1733 4.34685 5.03291C18.5675 -9.04704 40.8737 9.19323 28.3953 25.7753L30.346 27.6852V34.9991L18.6866 24.0875Z" fill="white"/>
<path d="M35.1719 30.662H39.3562V20.846C39.3562 20.4018 39.3859 19.9577 39.4753 19.5283C40.6516 13.4877 49.3627 13.31 50.8815 19.2322C51.0305 19.78 51.0751 20.3574 51.0751 20.9348V30.6472H55.1403V20.4314C55.1403 18.9657 54.8425 17.5148 54.2171 16.1823C50.7922 9.07567 40.1603 8.80918 36.3482 15.7825C35.5441 17.2483 35.1719 18.9065 35.1719 20.5647V30.662Z" fill="white"/>
<path d="M47.1738 20.6831H43.1533V30.662H47.1738V20.6831Z" fill="white"/>
<path d="M76.9849 30.7212L77.0295 26.5608L67.157 26.4572C66.7103 26.4572 66.2636 26.4128 65.8318 26.3388C59.7712 25.1099 59.6968 16.4487 65.668 14.983C66.2189 14.8498 66.7996 14.8053 67.3804 14.8053L77.1487 14.909L77.1933 10.8671L66.9039 10.7635C65.4297 10.7487 63.9555 11.0152 62.6303 11.637C55.4529 14.9682 55.0658 25.5245 62.0346 29.4035C63.4939 30.2178 65.1617 30.6027 66.8443 30.6323L76.9849 30.7212Z" fill="white"/>
<path d="M67.0776 18.6901L67.0342 22.6871L77.0695 22.7949L77.1129 18.7978L67.0776 18.6901Z" fill="white"/>
<path d="M119.081 30.7212L119.126 26.5608L109.253 26.4572C108.806 26.4572 108.36 26.4128 107.928 26.3388C101.867 25.1099 101.793 16.4487 107.764 14.983C108.315 14.8498 108.896 14.8053 109.476 14.8053L119.245 14.909L119.289 10.8671L109 10.7635C107.526 10.7487 106.051 11.0152 104.726 11.637C97.5489 14.9682 97.1617 25.5245 104.131 29.4035C105.59 30.2178 107.258 30.6027 108.94 30.6323L119.081 30.7212Z" fill="white"/>
<path d="M109.179 18.6829L109.136 22.68L119.171 22.7878L119.215 18.7907L109.179 18.6829Z" fill="white"/>
<path d="M79.0696 11.0596H99.1125V14.8794H91.0864V30.6619H86.9617V14.9386H79.0696V11.0596Z" fill="white"/>
<path d="M121.627 11.0596H135.103C135.565 11.0596 136.026 11.0892 136.473 11.1928C142.191 12.4365 142.534 20.5943 137.262 22.134C139.079 23.9699 140.062 26.7385 140.032 30.6619H135.952C135.967 26.2055 134.374 23.7182 131.351 22.9779C130.77 22.8299 130.174 22.7855 129.579 22.7855H121.627V18.9509H134.597C137.054 18.9509 137.054 14.8498 134.597 14.8498H121.627V11.0596Z" fill="white"/>
</svg>
