<svg width="18" height="16" viewBox="0 0 18 16" fill="none" xmlns="http://www.w3.org/2000/svg">
<path fill-rule="evenodd" clip-rule="evenodd" d="M0 14.75C0 14.5511 0.0790178 14.3603 0.21967 14.2197C0.360322 14.079 0.551088 14 0.75 14H17.25C17.4489 14 17.6397 14.079 17.7803 14.2197C17.921 14.3603 18 14.5511 18 14.75C18 14.9489 17.921 15.1397 17.7803 15.2803C17.6397 15.421 17.4489 15.5 17.25 15.5H0.75C0.551088 15.5 0.360322 15.421 0.21967 15.2803C0.0790178 15.1397 0 14.9489 0 14.75ZM0 10.25C0 10.0511 0.0790178 9.86032 0.21967 9.71967C0.360322 9.57902 0.551088 9.5 0.75 9.5H17.25C17.4489 9.5 17.6397 9.57902 17.7803 9.71967C17.921 9.86032 18 10.0511 18 10.25C18 10.4489 17.921 10.6397 17.7803 10.7803C17.6397 10.921 17.4489 11 17.25 11H0.75C0.551088 11 0.360322 10.921 0.21967 10.7803C0.0790178 10.6397 0 10.4489 0 10.25ZM0 5.75C0 5.55109 0.0790178 5.36032 0.21967 5.21967C0.360322 5.07902 0.551088 5 0.75 5H17.25C17.4489 5 17.6397 5.07902 17.7803 5.21967C17.921 5.36032 18 5.55109 18 5.75C18 5.94891 17.921 6.13968 17.7803 6.28033C17.6397 6.42098 17.4489 6.5 17.25 6.5H0.75C0.551088 6.5 0.360322 6.42098 0.21967 6.28033C0.0790178 6.13968 0 5.94891 0 5.75ZM0 1.25C0 1.05109 0.0790178 0.860322 0.21967 0.71967C0.360322 0.579018 0.551088 0.5 0.75 0.5H17.25C17.4489 0.5 17.6397 0.579018 17.7803 0.71967C17.921 0.860322 18 1.05109 18 1.25C18 1.44891 17.921 1.63968 17.7803 1.78033C17.6397 1.92098 17.4489 2 17.25 2H0.75C0.551088 2 0.360322 1.92098 0.21967 1.78033C0.0790178 1.63968 0 1.44891 0 1.25Z" fill="#072B46"/>
</svg>
