<svg width="18" height="18" viewBox="0 0 18 18" fill="none" xmlns="http://www.w3.org/2000/svg">
<path d="M1.66667 8.08333H7.16667C7.40978 8.08333 7.64294 7.98676 7.81485 7.81485C7.98676 7.64294 8.08333 7.40978 8.08333 7.16667V1.66667C8.08333 1.42355 7.98676 1.1904 7.81485 1.01849C7.64294 0.846578 7.40978 0.750001 7.16667 0.750001H1.66667C1.42355 0.750001 1.19039 0.846578 1.01849 1.01849C0.846577 1.1904 0.75 1.42355 0.75 1.66667V7.16667C0.75 7.40978 0.846577 7.64294 1.01849 7.81485C1.19039 7.98676 1.42355 8.08333 1.66667 8.08333ZM1.66667 17.25H7.16667C7.40978 17.25 7.64294 17.1534 7.81485 16.9815C7.98676 16.8096 8.08333 16.5764 8.08333 16.3333V10.8333C8.08333 10.5902 7.98676 10.3571 7.81485 10.1852C7.64294 10.0132 7.40978 9.91667 7.16667 9.91667H1.66667C1.42355 9.91667 1.19039 10.0132 1.01849 10.1852C0.846577 10.3571 0.75 10.5902 0.75 10.8333V16.3333C0.75 16.5764 0.846577 16.8096 1.01849 16.9815C1.19039 17.1534 1.42355 17.25 1.66667 17.25ZM10.8333 17.25H16.3333C16.5764 17.25 16.8096 17.1534 16.9815 16.9815C17.1534 16.8096 17.25 16.5764 17.25 16.3333V10.8333C17.25 10.5902 17.1534 10.3571 16.9815 10.1852C16.8096 10.0132 16.5764 9.91667 16.3333 9.91667H10.8333C10.5902 9.91667 10.3571 10.0132 10.1852 10.1852C10.0132 10.3571 9.91667 10.5902 9.91667 10.8333V16.3333C9.91667 16.5764 10.0132 16.8096 10.1852 16.9815C10.3571 17.1534 10.5902 17.25 10.8333 17.25ZM17.5186 3.76858L14.2314 0.481418C14.1464 0.396218 14.0453 0.328625 13.9341 0.282507C13.8229 0.236388 13.7037 0.21265 13.5833 0.21265C13.4629 0.21265 13.3437 0.236388 13.2325 0.282507C13.1213 0.328625 13.0203 0.396218 12.9352 0.481418L9.64808 3.76858C9.56288 3.85364 9.49529 3.95466 9.44917 4.06587C9.40305 4.17707 9.37932 4.29628 9.37932 4.41667C9.37932 4.53706 9.40305 4.65626 9.44917 4.76747C9.49529 4.87868 9.56288 4.9797 9.64808 5.06475L12.9352 8.35192C13.0203 8.43712 13.1213 8.50471 13.2325 8.55083C13.3437 8.59695 13.4629 8.62068 13.5833 8.62068C13.7037 8.62068 13.8229 8.59695 13.9341 8.55083C14.0453 8.50471 14.1464 8.43712 14.2314 8.35192L17.5186 5.06475C17.6038 4.9797 17.6714 4.87868 17.7175 4.76747C17.7636 4.65626 17.7873 4.53706 17.7873 4.41667C17.7873 4.29628 17.7636 4.17707 17.7175 4.06587C17.6714 3.95466 17.6038 3.85364 17.5186 3.76858Z" fill="#444A59"/>
</svg>
