<svg width="20" height="20" viewBox="0 0 20 20" fill="none" xmlns="http://www.w3.org/2000/svg">
<path fill-rule="evenodd" clip-rule="evenodd" d="M15.8333 2.50001H4.16658C3.72456 2.50001 3.30063 2.6756 2.98807 2.98817C2.67551 3.30073 2.49992 3.72465 2.49992 4.16668V15.8333C2.49992 16.2754 2.67551 16.6993 2.98807 17.0119C3.30063 17.3244 3.72456 17.5 4.16658 17.5H15.8333C16.2753 17.5 16.6992 17.3244 17.0118 17.0119C17.3243 16.6993 17.4999 16.2754 17.4999 15.8333V4.16668C17.4999 3.72465 17.3243 3.30073 17.0118 2.98817C16.6992 2.6756 16.2753 2.50001 15.8333 2.50001ZM4.16658 0.833344C3.28253 0.833344 2.43468 1.18453 1.80956 1.80965C1.18444 2.43478 0.833252 3.28262 0.833252 4.16668V15.8333C0.833252 16.7174 1.18444 17.5652 1.80956 18.1904C2.43468 18.8155 3.28253 19.1667 4.16658 19.1667H15.8333C16.7173 19.1667 17.5652 18.8155 18.1903 18.1904C18.8154 17.5652 19.1666 16.7174 19.1666 15.8333V4.16668C19.1666 3.28262 18.8154 2.43478 18.1903 1.80965C17.5652 1.18453 16.7173 0.833344 15.8333 0.833344H4.16658Z" fill="#EFEFEF"/>
<path d="M13.3333 10L8.33325 13.6083V6.39166L13.3333 10Z" fill="#EFEFEF"/>
</svg>
