<svg width="20" height="20" viewBox="0 0 20 20" fill="none" xmlns="http://www.w3.org/2000/svg">
<path d="M15.2272 15.2273L10.9658 12.3864L8.59837 14.2803L3.86353 10.4924M7.6514 6.70454H3.86353H7.6514ZM12.8597 8.59848C12.2319 8.59848 11.6297 8.34906 11.1857 7.90508C10.7417 7.4611 10.4923 6.85894 10.4923 6.23106C10.4923 5.60318 10.7417 5.00101 11.1857 4.55703C11.6297 4.11306 12.2319 3.86363 12.8597 3.86363C13.4876 3.86363 14.0898 4.11306 14.5338 4.55703C14.9777 5.00101 15.2272 5.60318 15.2272 6.23106C15.2272 6.85894 14.9777 7.4611 14.5338 7.90508C14.0898 8.34906 13.4876 8.59848 12.8597 8.59848ZM3.86353 3.86363H6.70443H3.86353Z" stroke="#EFEFEF" stroke-width="1.5" stroke-linecap="round" stroke-linejoin="round"/>
<path d="M1.02271 17.5V1.5909C1.02271 1.44021 1.08257 1.29569 1.18912 1.18914C1.29568 1.08258 1.4402 1.02272 1.59089 1.02272H17.5C17.6507 1.02272 17.7952 1.08258 17.9017 1.18914C18.0083 1.29569 18.0682 1.44021 18.0682 1.5909V17.5C18.0682 17.6507 18.0083 17.7952 17.9017 17.9018C17.7952 18.0083 17.6507 18.0682 17.5 18.0682H1.59089C1.4402 18.0682 1.29568 18.0083 1.18912 17.9018C1.08257 17.7952 1.02271 17.6507 1.02271 17.5V17.5Z" stroke="#EFEFEF" stroke-width="1.5"/>
</svg>
