<svg width="20" height="14" viewBox="0 0 20 14" fill="none" xmlns="http://www.w3.org/2000/svg">
<path d="M15.4999 2.41667C15.4999 1.93044 15.3068 1.46412 14.9629 1.12031C14.6191 0.77649 14.1528 0.583336 13.6666 0.583336H2.66659C2.18036 0.583336 1.71404 0.77649 1.37022 1.12031C1.02641 1.46412 0.833252 1.93044 0.833252 2.41667V11.5833C0.833252 12.0696 1.02641 12.5359 1.37022 12.8797C1.71404 13.2235 2.18036 13.4167 2.66659 13.4167H13.6666C14.1528 13.4167 14.6191 13.2235 14.9629 12.8797C15.3068 12.5359 15.4999 12.0696 15.4999 11.5833V8.52809L19.1666 11.5833V2.41667L15.4999 5.47192V2.41667ZM11.8333 7.91667H9.08325V10.6667H7.24992V7.91667H4.49992V6.08334H7.24992V3.33334H9.08325V6.08334H11.8333V7.91667Z" fill="#444A59"/>
</svg>
